<svg xmlns="http://www.w3.org/2000/svg" width="1600" height="900" viewBox="0 0 1600 900">
<rect width="1600" height="900" fill="#315b7e"/>
<path d="M0 690 L240 550 L410 630 L610 390 L760 470 L945 220 L1200 400 L1420 250 L1600 330 L1600 900 L0 900 Z" fill="#dbe6ef" opacity=".24"/>
<path d="M0 745 L250 600 L420 690 L615 450 L770 530 L955 280 L1210 460 L1430 310 L1600 395" fill="none" stroke="#f0a500" stroke-width="8" opacity=".65"/>
<g fill="none" stroke="#fff" stroke-width="3" opacity=".32">
<rect x="1010" y="350" width="360" height="290"/><rect x="1060" y="410" width="84" height="80"/><rect x="1180" y="410" width="84" height="80"/><rect x="1060" y="530" width="84" height="80"/><rect x="1180" y="530" width="84" height="80"/>
<path d="M980 350 L1190 215 L1400 350"/><path d="M1190 215V640"/>
</g>
<g fill="#fff" opacity=".14">
<circle cx="260" cy="180" r="125"/><circle cx="1450" cy="130" r="60"/><circle cx="860" cy="740" r="90"/>
</g>
</svg>